<svg xmlns="http://www.w3.org/2000/svg" xml:space="preserve" fill-rule="evenodd" stroke-linecap="square" stroke-linejoin="round" stroke-miterlimit="1.5" clip-rule="evenodd" viewBox="0 0 1067 1067"><path fill="none" stroke="#000" stroke-width="75" d="M992 165v737c0 49-41 90-90 90H165c-50 0-90-41-90-90V165c0-50 40-90 90-90h737c49 0 90 40 90 90Z"/><path fill-rule="nonzero" stroke="#000" stroke-linecap="round" stroke-miterlimit="2" stroke-width="18.3" d="M425 735h72v77a81 81 0 0 1-69 82H278c-20-4-36-13-49-28a79 79 0 0 1-20-54V255c0-21 7-39 20-54s29-25 49-28h150a81 81 0 0 1 68 82l1 77h-72v-77c0-7-4-11-10-11H291c-6 0-10 4-10 11v557c0 7 4 10 10 10h124c6 0 10-3 10-10v-77Zm361 0h72v77a81 81 0 0 1-69 82H639c-20-4-36-13-49-28a79 79 0 0 1-20-54V255c0-21 7-39 20-54s29-25 49-28h150c20 3 37 13 49 28 13 15 20 33 20 54v77h-72v-77c0-7-4-11-10-11H652c-6 0-10 4-10 11v557c0 7 4 10 10 10h124c6 0 10-3 10-10v-77Z"/></svg>