<svg xmlns="http://www.w3.org/2000/svg" viewBox="0 0 415.3 60"><path fill="white" d="M18 46.8h6v6.4q0 2.6-1.7 4.5-1.5 1.9-4 2.3H5.7q-2.6-.4-4.1-2.3-1.7-2-1.7-4.5V6.8q0-2.6 1.7-4.5Q3.2.4 5.7 0h12.5q2.6.4 4.1 2.3 1.6 2 1.6 4.5v6.4h-6V6.8q0-.9-.8-.9H7Q6 6 6 6.8v46.4q0 .9.9.9H17q.8 0 .8-.9v-6.4ZM35.4 0v60h-6V0h6ZM64 0v6h-8.4v54h-6V6H41V0h22.8Zm11.5 0v60h-6V0h6Zm27.2 6H87v18h12.5v6H87v24h15.6v6H81V24h6L81 6V0h21.6v6Zm28.6 7.2h-6V6.8q0-.9-.9-.9H115q-.8 0-.8.9v16.3q0 .5.5.7h9.6q3 0 5 2 1.9 2 1.9 4.9v22.5q0 2.6-1.6 4.5t-4 2.3h-11.7q-2.5-.4-4.1-2.3-1.6-2-1.6-4.5v-6.4h6v6.4q0 .9.8.9h9.3q.9 0 .9-.9V30.7q0-.6-.5-.8H115q-2.8 0-4.8-2t-2-4.8V6.8q0-2.6 1.6-4.5t4.1-2.3h11.6q2.5.4 4.1 2.3 1.6 2 1.6 4.5v6.4ZM169 46.8h6v6.4q0 2.6-1.6 4.5t-4 2.3h-12.6q-2.5-.4-4.1-2.3-1.7-2-1.7-4.5V6.8q0-2.6 1.7-4.5 1.6-1.9 4-2.3h12.6q2.5.4 4 2.3 1.7 2 1.7 4.5v6.4h-6V6.8q0-.9-.8-.9h-10.3q-.9 0-.9.9v46.4q0 .9.9.9H168q.8 0 .8-.9v-6.4ZM186.2 0h12.6q2.4.4 4.1 2.3 1.6 2 1.6 4.5v46.4q0 2.6-1.6 4.5-1.7 1.9-4.1 2.3h-12.6q-2.5-.4-4.1-2.3-1.7-2-1.7-4.5V6.8q0-2.6 1.7-4.5 1.6-1.9 4-2.3Zm12.3 53.2V6.8q0-.9-.7-.9h-10.5q-.9 0-.9.9v46.4q0 .9.9.9h10.5q.7 0 .7-.9Zm17.6.7h15.6V60H210V0h6v54Zm27.3 0h15.5V60h-21.5V0h6v54ZM286.2 6h-15.6v18h12.5v6h-12.5v24h15.6v6h-21.6V24h6l-6-18V0h21.6v6Zm23.5 40.8h6v6.4q0 2.6-1.6 4.5t-4 2.3h-12.6q-2.5-.4-4.1-2.3-1.6-2-1.6-4.5V6.8q0-2.6 1.6-4.5t4-2.3H310q2.5.4 4 2.3 1.7 2 1.7 4.5v6.4h-6V6.8q0-.9-.8-.9h-10.2q-.9 0-.9.9v46.4q0 .9.9.9h10.2q.8 0 .8-.9v-6.4ZM344 0v6h-8.5v54h-6V6h-8.4V0H344Zm11.6 0v60h-6V0h6Zm26.8 0h6.2L379 60h-8.2l-9.6-60h6l7.7 48 7.6-48Zm32.8 6h-15.5v18h12.5v6h-12.5v24h15.5v6h-21.5V24h6l-6-18V0h21.5v6Z"/></svg>