<svg xmlns="http://www.w3.org/2000/svg" viewBox="0 0 32 32"><g fill="#fff"><path d="M12.9 27a1.2 1.2 0 0 0 .2.8l.7 1a1.3 1.3 0 0 0 1 .5h2.6a1.3 1.3 0 0 0 1-.5l.7-1a1.2 1.2 0 0 0 .3-.7v-1.5h-6.5v1.5ZM9 16.4a6.6 6.6 0 0 0 1.8 4.5 11 11 0 0 1 2 3.5h6.6a11 11 0 0 1 2-3.5 6.6 6.6 0 0 0 1.8-4.5 7 7 0 0 0-7.1-6.8A7 7 0 0 0 9 16.3Z"/><rect width="2" height="5" rx="1" transform="translate(15 2.7)"/><rect width="2.3" height="5.3" rx="1.1" transform="rotate(44 5 34.2)"/><rect width="2.3" height="5.3" rx="1.1" transform="rotate(-71 27.5 -4.3)"/><rect width="2.3" height="5.3" rx="1.1" transform="rotate(-109 11 10.7)"/><rect width="2" height="5" rx="1" transform="rotate(90 -3.3 11.3)"/><rect width="2.3" height="5.3" rx="1.1" transform="rotate(134 3.2 7.2)"/><rect width="2" height="5" rx="1" transform="rotate(90 7.2 21.8)"/></g></svg>