<?xml version="1.0" encoding="UTF-8" standalone="no"?><!DOCTYPE svg PUBLIC "-//W3C//DTD SVG 1.1//EN" "http://www.w3.org/Graphics/SVG/1.1/DTD/svg11.dtd"><svg width="100%" height="100%" viewBox="0 0 512 512" version="1.1" xmlns="http://www.w3.org/2000/svg" xmlns:xlink="http://www.w3.org/1999/xlink" xml:space="preserve" xmlns:serif="http://www.serif.com/" style="fill-rule:evenodd;clip-rule:evenodd;stroke-linejoin:round;stroke-miterlimit:2;"><g transform="matrix(1,0,0,1,-6.4462,2.84217e-14)"><g transform="matrix(1.08218,0,0,1.08218,378.849,216.87)"><path d="M0,72.316L0,16.273L44.871,16.273C44.446,38.253 38.981,60.172 29.023,79.784C17.001,103.951 -1.154,123.988 -23.802,138.378C-8.744,119.676 -0.364,96.603 0,72.316M-190.899,138.742C-232.978,112.208 -259.086,66.244 -260.058,16.273L-215.187,16.273L-215.187,72.316C-214.884,96.725 -206.201,119.92 -190.899,138.742M-107.593,-179.667C-226.724,-179.667 -323.388,-83.003 -323.388,36.188C-323.388,115.972 -280.035,185.556 -215.733,223.02L-215.673,223.02C-213.912,223.991 -212.212,224.962 -210.451,225.874L-206.079,228.242C-204.136,229.213 -202.254,230.124 -200.311,231.035C-198.975,231.703 -197.7,232.31 -196.364,232.917C-189.018,236.196 -181.488,239.11 -173.716,241.599C-172.502,242.025 -171.288,242.389 -170.073,242.753C-169.223,242.996 -168.434,243.239 -167.644,243.421C-167.28,243.543 -166.977,243.665 -166.673,243.724C-165.398,244.088 -164.123,244.454 -162.848,244.818C-158.051,246.092 -153.193,247.185 -148.336,248.036C-146.696,248.461 -145.057,248.704 -143.357,249.007C-141.596,249.311 -139.835,249.553 -138.074,249.796C-137.042,249.979 -136.07,250.1 -135.099,250.221C-132.306,250.586 -129.574,250.889 -126.781,251.132C-125.445,251.254 -124.109,251.376 -122.834,251.436C-119.981,251.619 -117.187,251.8 -114.273,251.861C-112.148,251.921 -109.961,251.983 -107.836,251.983L-107.593,251.983C-105.347,251.983 -103.1,251.921 -100.854,251.861C-98,251.8 -95.207,251.619 -92.354,251.436C-91.078,251.376 -89.742,251.254 -88.406,251.132C-85.613,250.889 -82.881,250.586 -80.088,250.221C-79.056,250.1 -78.145,249.979 -77.113,249.796C-75.352,249.553 -73.591,249.311 -71.831,249.007C-71.223,248.886 -70.555,248.764 -69.887,248.643C-69.22,248.461 -68.612,248.339 -68.005,248.279C-66.73,248.036 -65.516,247.793 -64.301,247.55C-63.087,247.307 -61.933,247.003 -60.719,246.76C-59.565,246.579 -58.412,246.336 -57.258,246.092C-55.497,245.668 -53.675,245.182 -51.915,244.696C-50.457,244.332 -48.939,243.846 -47.482,243.421C-46.814,243.299 -46.207,243.118 -45.539,242.935L-45.539,242.875C-44.143,242.45 -42.807,242.025 -41.41,241.599C-36.329,239.991 -31.344,238.098 -26.421,236.076C-26.057,235.927 -25.684,235.799 -25.32,235.649C-23.559,234.92 -21.798,234.192 -20.037,233.403C-18.337,232.613 -16.576,231.824 -14.815,231.035C-13.115,230.184 -11.415,229.395 -9.715,228.485C-6.254,226.784 -2.854,224.962 0.486,223.02C6.679,219.437 12.69,215.551 18.458,211.301C23.923,207.354 29.206,203.165 34.246,198.732C79.602,159.265 108.261,101.036 108.261,36.188C108.261,-83.003 11.598,-179.667 -107.593,-179.667" style="fill:rgb(255,196,0);fill-rule:nonzero;"/></g><g transform="matrix(1.08218,0,0,1.08218,382.594,490.284)"><path d="M0,-24.471C-14.33,-16.153 -29.509,-9.533 -45.114,-4.737L-45.114,-4.676L-49.607,-3.34C-51.064,-2.915 -52.461,-2.491 -53.918,-2.126C-55.618,-1.701 -57.501,-1.155 -59.383,-0.73C-63.998,0.363 -68.916,1.335 -74.32,2.246C-75.898,2.55 -77.538,2.793 -79.177,2.974C-80.695,3.217 -81.728,3.399 -82.82,3.521C-85.613,3.885 -88.467,4.189 -91.381,4.431C-92.718,4.553 -94.114,4.675 -95.51,4.735C-98.486,4.918 -101.279,5.099 -104.193,5.16C-106.44,5.22 -108.808,5.282 -111.054,5.282L-111.297,5.282C-113.666,5.282 -115.791,5.22 -117.916,5.16C-120.83,5.099 -123.623,4.918 -126.477,4.735C-127.995,4.675 -129.392,4.553 -130.788,4.431C-133.642,4.189 -136.496,3.885 -139.289,3.521C-140.564,3.339 -141.535,3.217 -142.507,3.035C-144.571,2.793 -146.211,2.55 -147.79,2.246C-154.833,1.031 -161.39,-0.366 -167.827,-2.066L-171.227,-2.976L-171.105,-6.133L-171.834,-3.159L-172.38,-3.34C-173.048,-3.462 -173.655,-3.644 -174.323,-3.887C-174.627,-3.948 -174.991,-4.008 -175.295,-4.129L-177.42,-4.859C-183.492,-6.741 -189.564,-8.927 -195.575,-11.416C-197.822,-12.326 -200.068,-13.238 -202.315,-14.27C-203.65,-14.938 -205.047,-15.545 -206.383,-16.212C-208.326,-17.123 -210.269,-18.095 -212.212,-19.067L-222.048,-24.409L-219.134,-29.753C-219.134,-29.693 -219.073,-29.693 -219.073,-29.693L-209.419,-24.471C-207.597,-23.56 -205.654,-22.588 -203.772,-21.677C-202.376,-21.01 -201.1,-20.403 -199.765,-19.795C-192.357,-16.455 -184.706,-13.541 -177.177,-11.173C-175.962,-10.748 -174.749,-10.384 -173.534,-10.02C-172.684,-9.777 -171.895,-9.533 -171.105,-9.291C-170.802,-9.169 -170.438,-9.048 -170.134,-8.987L-166.248,-7.894C-159.994,-6.255 -153.618,-4.919 -146.757,-3.704C-145.239,-3.462 -143.66,-3.219 -142.142,-3.036L-141.414,-2.915C-140.564,-2.794 -139.714,-2.672 -138.864,-2.551C-135.767,-2.187 -133.035,-1.883 -130.242,-1.64C-128.906,-1.519 -127.631,-1.397 -126.356,-1.337C-123.32,-1.155 -120.587,-0.973 -117.794,-0.911C-113.119,-0.79 -108.504,-0.79 -104.315,-0.911C-101.522,-0.973 -98.79,-1.155 -96.057,-1.337C-94.478,-1.397 -93.203,-1.519 -91.928,-1.64C-89.074,-1.883 -86.342,-2.187 -83.549,-2.551C-82.577,-2.672 -81.667,-2.734 -80.695,-2.915L-79.966,-3.036C-78.448,-3.219 -76.87,-3.462 -75.292,-3.704C-70.069,-4.616 -65.272,-5.587 -60.779,-6.68C-58.958,-7.105 -57.197,-7.53 -55.436,-8.016C-54.04,-8.38 -52.643,-8.805 -51.307,-9.169L-50.943,-9.291L-49,-9.898C-47.604,-10.324 -46.268,-10.748 -44.871,-11.173C-30.42,-15.727 -16.333,-21.981 -3.036,-29.693L0,-24.471Z" style="fill-rule:nonzero;"/></g><g transform="matrix(1.08218,0,0,1.08218,262.414,250.776)"><path d="M0,102.918L0,108.99C-38.253,108.99 -69.402,77.902 -69.402,39.589L-69.402,-6.072L-63.33,-6.072L-63.33,39.589C-63.33,74.502 -34.914,102.918 0,102.918" style="fill:rgb(12,26,37);fill-rule:nonzero;"/></g><g transform="matrix(1.08218,0,0,1.08218,410.258,369.773)"><path d="M0,-61.508C-12.022,-37.341 -30.177,-17.304 -52.825,-2.914C-37.767,-21.615 -29.388,-44.689 -29.023,-68.976L-29.023,-125.019L15.848,-125.019C15.423,-103.039 9.958,-81.12 0,-61.508M-64.726,1.397C-66.791,3.4 -69.159,5.587 -71.708,7.772L-71.77,7.834L-72.194,8.076L-72.438,8.259C-90.471,23.013 -113.24,31.149 -136.617,31.149C-159.933,31.149 -182.763,23.013 -201.222,8.015C-224.294,-11.111 -237.774,-39.163 -238.139,-68.976L-238.139,-159.872L-35.095,-159.872L-35.095,-69.037C-35.459,-42.503 -46.024,-17.487 -64.726,1.397M-289.082,-125.019L-244.211,-125.019L-244.211,-68.976C-243.907,-44.567 -235.224,-21.372 -219.923,-2.55C-262.001,-29.084 -288.11,-75.048 -289.082,-125.019M-29.023,-131.091L-29.023,-165.944L-244.211,-165.944L-244.211,-131.091L-295.214,-131.091L-295.214,-128.055C-295.214,-71.526 -264.369,-19.551 -214.701,7.591L-204.197,13.298L-204.197,13.237C-194.725,20.948 -184.038,26.899 -172.684,30.968C-172.805,38.8 -174.991,68.006 -201.465,86.099L-202.74,87.011L-202.74,104.315L-196.668,104.255L-196.668,90.168C-170.559,71.467 -166.976,43.596 -166.612,32.91C-156.897,35.763 -146.818,37.221 -136.617,37.221C-126.356,37.221 -116.276,35.763 -106.562,32.91C-106.257,43.596 -102.675,71.467 -76.505,90.168L-76.505,104.436L-70.434,104.376L-70.434,87.011L-71.77,86.099C-98.243,68.066 -100.49,38.86 -100.55,30.968C-89.014,26.899 -78.266,20.888 -68.794,13.116L-68.612,12.994L-58.533,7.53C-30.784,-7.589 -8.622,-30.541 5.404,-58.776C16.273,-80.148 21.98,-104.071 21.98,-128.055L21.98,-131.091L-29.023,-131.091Z" style="fill:rgb(12,26,37);fill-rule:nonzero;"/></g><g transform="matrix(1.08218,0,0,1.08218,262.414,231.523)"><path d="M0,126.781C-38.253,126.781 -69.402,95.693 -69.402,57.38L-69.402,11.719L-63.33,11.719L-63.33,57.38C-63.33,92.293 -34.914,120.709 0,120.709L0,126.781ZM-101.522,-32.12L-101.522,58.776C-101.158,88.589 -87.678,116.641 -64.605,135.767C-46.146,150.765 -23.316,158.901 0,158.901C23.376,158.901 46.146,150.765 64.179,136.01L64.422,135.828L64.847,135.586L64.908,135.524C67.458,133.339 69.826,131.152 71.891,129.149C90.592,110.265 101.157,85.249 101.522,58.715L101.522,-32.12L-101.522,-32.12Z" style="fill:rgb(30,131,170);fill-rule:nonzero;"/></g><g transform="matrix(-1.53071,0,0,1.53071,310.974,183.238)"><path d="M0,-63.406C0,-45.897 14.194,-31.703 31.703,-31.703C14.194,-31.703 0,-17.509 0,0C0,-17.509 -14.194,-31.703 -31.703,-31.703C-14.194,-31.703 0,-45.897 0,-63.406" style="fill:rgb(233,95,74);fill-rule:nonzero;"/></g><g transform="matrix(-1.53071,0,0,1.53071,372.278,112.955)"><path d="M-0.001,-34.982C-0.001,-25.322 7.83,-17.491 17.491,-17.491C7.83,-17.491 -0.001,-9.66 -0.001,0C-0.001,-9.66 -7.832,-17.491 -17.492,-17.491C-7.832,-17.491 -0.001,-25.322 -0.001,-34.982" style="fill:rgb(233,95,74);fill-rule:nonzero;"/></g><g transform="matrix(1.08218,0,0,1.08218,262.413,489.428)"><path d="M0,6.072L-0.243,6.072L-0.243,0L0,6.072Z" style="fill-rule:nonzero;"/></g><g transform="matrix(1.08218,0,0,1.08218,398.824,66.4641)"><path d="M0,350.286C-5.829,354.415 -11.78,358.361 -18.034,361.943C-19.673,362.915 -21.373,363.887 -23.073,364.737C-24.591,365.587 -26.048,366.376 -27.566,367.105C-27.749,367.287 -27.991,367.408 -28.173,367.47C-29.874,368.38 -31.574,369.169 -33.274,370.019C-35.035,370.808 -36.796,371.598 -38.496,372.388C-40.59,373.343 -42.744,374.182 -44.88,375.06C-49.813,377.064 -54.837,378.88 -59.869,380.463C-61.265,380.888 -62.601,381.312 -63.998,381.738L-65.94,382.345L-66.305,382.467C-67.641,382.831 -69.037,383.256 -70.434,383.62C-72.194,384.106 -73.956,384.531 -75.777,384.956C-76.931,385.199 -78.023,385.503 -79.177,385.745C-80.392,385.988 -81.545,386.292 -82.759,386.535C-83.974,386.839 -85.188,387.081 -86.463,387.264C-87.071,387.324 -87.678,387.445 -88.346,387.628C-88.953,387.688 -89.621,387.809 -90.289,387.932C-91.867,388.174 -93.446,388.417 -94.964,388.599L-95.692,388.721C-96.664,388.902 -97.575,388.964 -98.546,389.085C-101.34,389.449 -104.072,389.753 -106.926,389.996C-108.201,390.117 -109.476,390.239 -111.055,390.299C-113.787,390.481 -116.52,390.663 -119.312,390.724C-123.502,390.846 -128.117,390.846 -132.792,390.724C-135.585,390.663 -138.317,390.481 -141.353,390.299C-142.628,390.239 -143.903,390.117 -145.239,389.996C-148.032,389.753 -150.765,389.449 -153.861,389.085C-154.711,388.964 -155.562,388.842 -156.411,388.721L-157.14,388.599C-158.658,388.417 -160.236,388.174 -161.754,387.932C-163.455,387.628 -165.155,387.324 -166.794,387.02C-171.773,386.049 -176.57,384.956 -181.245,383.742L-185.131,382.649C-185.435,382.588 -185.799,382.467 -186.103,382.345C-186.892,382.102 -187.682,381.859 -188.532,381.616C-189.746,381.252 -190.96,380.888 -192.175,380.463C-199.704,378.095 -207.355,375.181 -214.762,371.841C-216.098,371.233 -217.373,370.626 -218.77,369.959C-220.652,369.048 -222.595,368.076 -224.416,367.165L-234.071,361.943C-234.071,361.943 -234.131,361.943 -234.131,361.883C-300.497,323.327 -341.725,251.8 -341.725,175.173C-341.725,56.225 -245,-40.561 -126.052,-40.561C-7.104,-40.561 89.682,56.225 89.682,175.173C89.682,237.895 62.115,297.096 15.787,337.717C10.747,342.149 5.465,346.339 0,350.286M-126.052,-46.632C-248.339,-46.632 -347.797,52.886 -347.797,175.173C-347.797,253.986 -305.415,327.577 -237.046,367.226L-227.21,372.569C-225.267,373.541 -223.323,374.513 -221.38,375.424C-220.044,376.091 -218.648,376.698 -217.312,377.366C-215.066,378.398 -212.819,379.309 -210.573,380.22C-204.562,382.709 -198.49,384.895 -192.418,386.777C-191.689,387.02 -190.96,387.203 -190.232,387.445C-189.928,387.507 -189.625,387.628 -189.321,387.749C-188.774,387.932 -188.107,388.113 -187.378,388.296L-186.832,388.477C-186.649,388.538 -186.467,388.599 -186.224,388.66L-182.824,389.57C-176.388,391.27 -169.83,392.667 -162.787,393.882C-161.208,394.185 -159.569,394.429 -157.504,394.671C-156.533,394.853 -155.562,394.974 -154.286,395.157C-151.493,395.521 -148.64,395.825 -145.786,396.067C-144.389,396.189 -142.993,396.31 -141.475,396.371C-138.621,396.554 -135.828,396.735 -132.913,396.796C-130.788,396.856 -128.663,396.918 -126.295,396.918L-126.052,396.918C-123.805,396.918 -121.438,396.856 -119.19,396.796C-116.276,396.735 -113.483,396.554 -110.508,396.371C-109.111,396.31 -107.715,396.189 -106.379,396.067C-103.465,395.825 -100.611,395.521 -97.818,395.157C-96.725,395.035 -95.692,394.853 -94.175,394.61C-92.536,394.429 -90.896,394.185 -89.317,393.882C-83.913,392.971 -78.995,391.999 -74.38,390.906C-72.499,390.481 -70.616,389.934 -68.916,389.51C-67.458,389.145 -66.062,388.721 -64.604,388.296L-60.111,386.96L-60.111,386.899C-44.507,382.102 -29.327,375.483 -14.998,367.165C53.311,327.577 95.753,254.047 95.753,175.173C95.753,52.886 -3.765,-46.632 -126.052,-46.632" style="fill:rgb(12,26,37);fill-rule:nonzero;"/></g><g transform="matrix(1.08218,0,0,1.08218,427.408,366.619)"><path d="M0,-122.105C-0.425,-100.125 -5.89,-78.206 -15.848,-58.594C-27.87,-34.427 -46.025,-14.39 -68.673,0C-53.615,-18.701 -45.235,-41.774 -44.871,-66.062L-44.871,-122.105L0,-122.105Z" style="fill:white;fill-rule:nonzero;"/></g><g transform="matrix(1.0615,-0.210517,-0.210517,-1.0615,184.438,358.468)"><path d="M-12.573,-5.557C-48.685,28.656 -65.354,78.821 -56.586,128.026L-12.573,119.297L-23.475,64.325C-27.925,40.323 -23.92,15.882 -12.573,-5.557" style="fill:white;fill-rule:nonzero;"/></g><g transform="matrix(1.08218,0,0,1.08218,327.465,427.465)"><path d="M0,36.857L0,48.757L-0.364,48.879C-1.7,49.244 -3.097,49.669 -4.493,50.033C-6.254,50.519 -8.015,50.944 -9.836,51.369C-14.33,52.461 -19.126,53.433 -24.349,54.344C-25.927,54.586 -27.505,54.83 -29.023,55.012L-29.752,55.133C-30.724,55.315 -31.634,55.377 -32.606,55.498C-35.399,55.862 -38.131,56.166 -40.985,56.409C-42.26,56.53 -43.535,56.652 -45.114,56.711C-47.847,56.894 -50.579,57.076 -53.372,57.137C-57.562,57.258 -62.176,57.258 -66.852,57.137C-69.645,57.076 -72.377,56.894 -75.413,56.711C-76.688,56.652 -77.963,56.53 -79.299,56.409C-82.092,56.166 -84.824,55.862 -87.921,55.498C-88.771,55.377 -89.621,55.254 -90.471,55.133L-91.199,55.012C-92.717,54.83 -94.296,54.586 -95.814,54.344C-102.675,53.129 -109.051,51.794 -115.305,50.155L-119.191,49.062C-119.495,49.001 -119.859,48.879 -120.162,48.757L-120.162,36.857C-94.053,18.156 -90.471,-9.714 -90.107,-20.401C-80.392,-17.547 -70.313,-16.09 -60.111,-16.09C-49.85,-16.09 -39.771,-17.547 -30.056,-20.401C-29.752,-9.714 -26.17,18.156 0,36.857" style="fill:white;fill-rule:nonzero;"/></g></g><g id="Layer1"></g></svg>