<svg xmlns="http://www.w3.org/2000/svg" viewBox="0 0 26 26"><path fill="#94c900" d="M14.35 14.97s-.42-2.65 1.2-3.94a7.03 7.03 0 0 1 3.29-1.1 8.5 8.5 0 0 0 2.45-1.02s-.7 4.46-2.32 5.75-4.62.3-4.62.3Z"/><path fill="#a3db06" d="M12.58 11.49s.47-3.54-1.5-5.28a8.1 8.1 0 0 0-3.98-1.5 10 10 0 0 1-2.97-1.39s.9 5.97 2.86 7.7 5.6.47 5.6.47Z"/><path fill="#815d38" d="M13.37 15.46a12 12 0 0 1 2.2-2.6 15.22 15.22 0 0 1 3.11-1.96 15.55 15.55 0 0 0-2.76 2.22 11.79 11.79 0 0 0-1.84 2.68Z"/><path fill="#a8825b" d="M12.53 19.28s1.36-.6 1.57-3.7c.2-3-2.83-6.42-3.6-7.14a11.2 11.2 0 0 0-4.36-1.93 17.86 17.86 0 0 1 4.36 2.94 7 7 0 0 1 2.03 5.33 5.85 5.85 0 0 1-2.95 4.5Z"/><path fill="#94c900" d="M7.39 20.23a19.63 19.63 0 0 0 4.9.75 17.32 17.32 0 0 0 4.72-.75s-1.58-3.16-4.72-2.97a6.84 6.84 0 0 0-4.9 2.97Z"/></svg>