<svg xmlns="http://www.w3.org/2000/svg" viewBox="0 0 26 26"><path fill="#97b4be" d="M5.54 13.58a2.54 2.54 0 0 0 2.08.92c1.55.03 2-1.03 2.27-.92 1.57.64 1.7 2.56 1.71 3.32s0 2.22 0 2.22a.74.74 0 0 1-.75.75H4.52a.74.74 0 0 1-.75-.75s-.02-1.44 0-2.22 0-2.67 1.77-3.32Zm10.63 0a2.54 2.54 0 0 0 2.1.92c1.54.03 2-1.03 2.26-.92 1.56.64 1.7 2.56 1.7 3.32v2.22a.74.74 0 0 1-.74.75h-6.33a.74.74 0 0 1-.75-.75s-.02-1.44 0-2.22 0-2.67 1.76-3.32Z"/><circle cx="2.59" cy="2.59" r="2.59" fill="#97b4be" transform="translate(5.18 9)"/><circle cx="2.59" cy="2.59" r="2.59" fill="#97b4be" transform="translate(15.81 9)"/><path fill="#c2f0ff" d="M10.04 11.92a3.39 3.39 0 0 0 2.79 1.22c2.06.04 2.66-1.38 3.02-1.22 2.09.85 2.28 3.4 2.28 4.41v2.97a1 1 0 0 1-1 1H8.7a1 1 0 0 1-1-1s-.03-1.92 0-2.97 0-3.55 2.35-4.41Z"/><circle cx="3.52" cy="3.52" r="3.52" fill="#c2f0ff" transform="translate(9.72 5.7)"/></svg>