<svg xmlns="http://www.w3.org/2000/svg" viewBox="0 0 91.22 82.34"><defs><style>.cls-1{fill:#5abe41;}.cls-2,.cls-3{fill:#fff;}.cls-3{opacity:0.5;}</style></defs><g id="Layer_2" data-name="Layer 2"><g id="Layer_1-2" data-name="Layer 1"><path class="cls-1" d="M89.55,34.94,73,6.23A12.46,12.46,0,0,0,62.18,0H56.62L34.56,82.34H62.18A12.48,12.48,0,0,0,73,76.11L89.55,47.4A12.44,12.44,0,0,0,89.55,34.94Z"/><path class="cls-2" d="M48.26,12.49a20.42,20.42,0,0,1,3.32.47L52,13c4.17.65,5.14,1,4.53,5.19v.14A2.9,2.9,0,0,0,57.13,21a1.92,1.92,0,0,0,1.31.52c1.43,0,2.73-1.53,3.81-3l.06-.08,0-.06,0,0a1.1,1.1,0,0,1,.15-.16h0l.07.06a3.88,3.88,0,0,0,1.61.94,2.29,2.29,0,0,0,.64.08,4.32,4.32,0,0,0,.86-.1,4.14,4.14,0,0,1,.55-.07h0a3.36,3.36,0,0,0,.13,1.78A4.38,4.38,0,0,0,67.27,22c.35.36.67.71.65,1s-.55.77-1.07,1.17c-.92.72-2.46,1.92-1.4,3.88a3,3,0,0,0,2.71,1.19h.27l.22-.15a4.12,4.12,0,0,1,2.06-.8c1.27,0,1.85,1.69,2,3.55h0a11.66,11.66,0,0,0-2-.22,2.72,2.72,0,0,0-2,.7A2.23,2.23,0,0,0,68.05,34c0,1.69,1.72,2.36,3.06,2.9.85.34,1.81.72,2,1.22s.1,1.22-.23,2.14A5.23,5.23,0,0,0,72.51,43a3,3,0,0,0,1.16,1.77c.42.36.6.51.57,1l-.42,1c-.17.38-.33.77-.49,1.17l0,.08,0,.08c-.13.63-.25,1.27-.38,1.92s-.26,1.27-.38,1.89C72,53.73,70,57.24,68.65,57.24h-.11a5.43,5.43,0,0,0-.67,0,2.09,2.09,0,0,0-1.69.66,2.9,2.9,0,0,0-.34,2.44,3.45,3.45,0,0,1,.07.86,4.16,4.16,0,0,1-1,1l-.26.23a24.69,24.69,0,0,1-3.1,2.22l-1.46,1-.59.44a8,8,0,0,1-1.74,1.1.69.69,0,0,1-.2,0,2.37,2.37,0,0,1-.65-.15,3.31,3.31,0,0,0-1.1-.22A2,2,0,0,0,55,67a3.61,3.61,0,0,0-1.44,1.37,2.42,2.42,0,0,1-.62.72,11.94,11.94,0,0,1-4.17.83,3.85,3.85,0,0,1-1.29-.18c.45-.22,1-.52,1.68-.87.4-.22.79-.43,1.13-.6l0,0,0,0,.95-.6.8-.52h.22c.17,0,.37,0,.57,0a6.49,6.49,0,0,0,.78.06,2.67,2.67,0,0,0,1.16-.24,3.19,3.19,0,0,0,1.36-1.46,2.65,2.65,0,0,1,.53-.74,14.31,14.31,0,0,1,2.34-1.63,16,16,0,0,0,3-2.18,5.76,5.76,0,0,0,1.72-3.11,5.37,5.37,0,0,0,0-1.6c-.07-.54-.15-1.11,0-1.26a4.08,4.08,0,0,1,1.14-.6,5.4,5.4,0,0,0,1.81-1c2.39-2.4,3.65-8.71,1.67-11.89a4.3,4.3,0,0,0-3.6-2.29c-1.73,0-3.25,1.25-4,3.3a15,15,0,0,0-.32,1.73c-.1.66-.27,1.78-.44,2.39a9.25,9.25,0,0,1-1.16-1.9c-.1-.19-.18-.35-.25-.47s-.35-.59-.71-1.14-.85-1.29-1-1.6v-.77H54.6v.89a28.09,28.09,0,0,0,1.61,8.37c.15.5.31,1,.44,1.47a6.35,6.35,0,0,0-1-.07h-.23A5.69,5.69,0,0,0,52,52.41a7.66,7.66,0,0,1-1.57.82,1.75,1.75,0,0,0-.68.42l-.07.06h-.8l.11,1c.08.75,0,.88-.32,1.23a4.18,4.18,0,0,0-.79,1.28,4,4,0,0,0-.21.9.9.9,0,0,0-.85-.67,2.35,2.35,0,0,0-.68-.11,2.05,2.05,0,0,0-1.45.62c0-.1.07-.21.11-.32a8.2,8.2,0,0,0,.48-1.79l.05-.42L45,55.14a1,1,0,0,0-.86-.43H44l.48-.27c.25-.14.49-.28.76-.45a4.76,4.76,0,0,0,.69-.57,2.26,2.26,0,0,1,.62-.46,2.93,2.93,0,0,1,.68-.13,2.43,2.43,0,0,0,2.07-1.09A2.28,2.28,0,0,0,49.41,50a2.17,2.17,0,0,1-.08-.47c.22-1,.51-1.91.81-2.92a20.34,20.34,0,0,0,1.27-7.17,5.52,5.52,0,0,0-.7-2.22c-.41-.83-.65-1.37-.45-1.94a8.8,8.8,0,0,1,2.5-3.4A3.81,3.81,0,0,1,54,31.77c.94,0,2.36,0,3-1.51,1-2.2-.53-4.41-2.4-5.37a10.64,10.64,0,0,0-4.79-1.06c-3.52,0-5.82,1.54-6.15,4.11a3.48,3.48,0,0,0,.51,2.23,4.3,4.3,0,0,1,.25.53,3,3,0,0,1-.74,2.86A4,4,0,0,1,42,34.82a3.3,3.3,0,0,1-.92.1c-.27,0-.53,0-.8,0l-.86,0a2.89,2.89,0,0,0-3.1,2,2.48,2.48,0,0,0,.81,2.5,10.48,10.48,0,0,0,2.49,1.49c.92.45,2.47,1.2,2.63,1.72a2.83,2.83,0,0,1,0,1.41,4.17,4.17,0,0,0,.21,2.74c0,.1.12.23.2.36s.16.28.24.45a2.83,2.83,0,0,1-.61-.37,2.92,2.92,0,0,0-1.74-.72H39.6v.89a1.06,1.06,0,0,0,.18.56c.16.29.3.57.42.85-.08-.14-.16-.29-.25-.43l-.05-.08-.07-.06-.2-.2-.19-.18V46.37l-1.36.86a2.37,2.37,0,0,0-.3.23,2.76,2.76,0,0,0-.23-.93,2.61,2.61,0,0,0-1.35-1.11,2.29,2.29,0,0,1-.39-.2l-.05,0a2.54,2.54,0,0,1,.22-1,3.3,3.3,0,0,0,.11-2.53,2.62,2.62,0,0,0-1.45-1.31c-.37-.18-.54-.27-.59-.43s0-.5.17-.95a3.86,3.86,0,0,0,.32-1.18A2.4,2.4,0,0,0,34,36c-1.08-1.32-3.5-2-4.79-2.12h-.23A4,4,0,0,0,26.28,35,3.43,3.43,0,0,0,25,37.46a3.5,3.5,0,0,0,1.51,2.42c.76.68,1.11,1.06,1,1.53,0,.14-.2.23-.68.44a2.88,2.88,0,0,0-1.44,1A2,2,0,0,0,26,45.62a2.85,2.85,0,0,0,2.61.55c.77.92.36,2.68,0,4.39a12.18,12.18,0,0,0-.46,3.16,14.84,14.84,0,0,0,1,4.21,16.67,16.67,0,0,1,.8,2.83c.42,2.64-1.14,6.68-3.37,7.36a.82.82,0,0,1-.21,0l0-.08a10.57,10.57,0,0,0,.67-4,8.4,8.4,0,0,0-2.45-4.7,15.23,15.23,0,0,0-1.45-1.18c-1.2-.92-2.85-2.18-2.79-3.16,0-.33,1.11-.78,1.75-1,1.39-.58,3.71-1.55,2.76-3.85C24.42,49,23.71,48.8,23.2,48.8c-1,0-1.8.84-2.67,1.74-.47.48-1.34,1.36-1.69,1.37a.75.75,0,0,1-.21-.24,3.28,3.28,0,0,1-.32-1.56,7.46,7.46,0,0,0-.21-1.56,5.28,5.28,0,0,0-.47-1.18,2.28,2.28,0,0,1-.34-1,5.09,5.09,0,0,1,.26-1.11,5.1,5.1,0,0,0,.32-1.93,9.78,9.78,0,0,0-.43-1.94c-.36-1.24-.76-2.65-.16-3.24a.47.47,0,0,1,.37-.12,5.28,5.28,0,0,1,1.4.35,6.2,6.2,0,0,0,2,.45,2.45,2.45,0,0,0,2.42-2.12,3.12,3.12,0,0,0-.17-2.12,2.27,2.27,0,0,1-.18-.69,4.89,4.89,0,0,1,.61-1.82,4.94,4.94,0,0,0,.48-4.32l0,0,0,0a3,3,0,0,0-1.73-1.23,3.53,3.53,0,0,1-.69-.32c0-.13.09-.32.4-.64A1.58,1.58,0,0,1,23.31,25,6.87,6.87,0,0,1,26,26a7.94,7.94,0,0,0,3.47,1.18h.81l.07-.81a4.63,4.63,0,0,1,.07-.52,4.3,4.3,0,0,0-.05-2.1,7.22,7.22,0,0,0-1.7-2.24c-.5-.52-1.66-1.72-1.5-2v-.05a.67.67,0,0,1,.46-.39h.05L28,19c.93,0,1.77,1.19,2.58,2.35,1,1.41,2,2.86,3.61,2.86a1.72,1.72,0,0,0,.32,0,2.87,2.87,0,0,0,1.86-1.11l0,0,0,0c1.42-2-.28-4-1.65-5.57a9.73,9.73,0,0,1-1.43-1.94A3.44,3.44,0,0,1,35,14.88c.92,0,1.51.83,2.36,2.21s1.85,3,3.74,3h.12l.55,0,.22-.51a6.37,6.37,0,0,0,.25-3.81c0-.21-.15-.5-.25-.83a7.54,7.54,0,0,1-.49-2.09,1.66,1.66,0,0,1,.62-.26l.17-.05c.92.36,1.28,1.57,1.66,3.22s.79,3.31,2.45,3.35h.18a1.56,1.56,0,0,0,1.17-.52c1-1.06.78-3.47.51-6v0M34.24,35a1.4,1.4,0,0,0,.41-.06l.06,0,0,0a2.37,2.37,0,0,0,1.05-2.34,4.13,4.13,0,0,0-2.2-3.64l-.75-.31-.38.72-.14.27c-.61,1.14-1.23,2.32-.82,3.48a3,3,0,0,0,1.85,1.71l0,0h0l.08,0a2.08,2.08,0,0,0,.73.16m5.35,11.37a2.38,2.38,0,0,0,.8-.13l.18-.07L40.7,46a1.64,1.64,0,0,0,.44-1.08c.17-1.43-.91-3.53-3.25-4.7l-1.28-.64V41c0,.21,0,.41,0,.62,0,1.68-.06,3.78,2,4.5a2.62,2.62,0,0,0,1,.21M21.82,48.79a3.38,3.38,0,0,0,.63-.07,3.31,3.31,0,0,0,2.49-2.46,2.88,2.88,0,0,0-1-3,3.76,3.76,0,0,0-2.38-.82l-.28,0-.24.14-.18.1a3.53,3.53,0,0,0-1.64,1.5,3.19,3.19,0,0,0,.09,3.12,2.92,2.92,0,0,0,2.5,1.49M42.29,11.57c-.52.2-1.23.26-1.55.79s.45,2.78.65,3.58a5.55,5.55,0,0,1-.2,3.24h-.08C38.28,19.18,38,14,35,14a4.84,4.84,0,0,0-2.7,1.09c0,2.18,5.08,5,3.35,7.41a2.12,2.12,0,0,1-1.29.8h-.21c-2.37,0-3.5-5.22-6.19-5.22a2,2,0,0,0-.42,0,1.54,1.54,0,0,0-1.16.93c-.71,1.46,2.64,3.51,3.15,5a5.3,5.3,0,0,1-.06,2.25c-2,0-4.18-2.17-6.17-2.17a2.5,2.5,0,0,0-1.82.78,1.66,1.66,0,0,0-.64,1.46c.26,1,2,.86,2.51,1.79,1,2.25-1.09,3.84-1.16,5.76,0,.92.71,1.52.39,2.58S21.7,38,21,38c-1,0-2.33-.81-3.37-.81a1.34,1.34,0,0,0-1,.37c-1.42,1.39.19,4.24.32,5.89.06,1.06-.52,1.85-.58,2.91-.06.86.64,1.59.84,2.45.32,1.13,0,2.39.64,3.38a1.13,1.13,0,0,0,.95.64c1.4,0,3.13-3.11,4.36-3.11.33,0,.63.23.87.81C25.16,53.14,19.63,53,19.5,55s3.22,3.77,4.51,5a7.46,7.46,0,0,1,2.18,4.17c.13,1.59-.58,3.24-1,4.7.42,0,.74.14,1.13.14a1.46,1.46,0,0,0,.48-.08c2.83-.86,4.44-5.49,4-8.34-.39-2.38-1.67-4.43-1.8-6.95s2.19-6.62-.07-8.41c-.13-.06-.19-.13-.32-.19,0,.26-.51.33-.84.33a1.84,1.84,0,0,1-1.22-.47,1.15,1.15,0,0,1-.39-1.59c.52-.79,2.06-.66,2.26-1.78.38-2.45-4.57-2.92-1.55-5.89a3.13,3.13,0,0,1,2-.94h.16c1.42.13,4.76,1.12,4.57,3-.06.86-.77,1.59-.45,2.51s1.67.86,2.06,1.79c.52,1.26-.51,2.12-.39,3.31,0,.27.13.4.39.6.45.33,1.22.46,1.48,1,.64,1.46-1,3.18,1.16,4,0-1-.19-2.38.64-2.91,0,.26.45.59.65.79.71,1.13,1,2.19,2.44,2.58a8,8,0,0,0-1.16-4c.92,0,1.54,1.11,2.48,1.11a1.56,1.56,0,0,0,.36,0c1.09-.27.13-1.53-.13-2.06-.71-1.45.32-2.64-.13-4s-4.18-2.44-5.34-3.57a1.65,1.65,0,0,1-.58-1.59c.37-1.17,1.24-1.37,2.25-1.37.53,0,1.1,0,1.66,0a4.42,4.42,0,0,0,1.17-.13,4.78,4.78,0,0,0,2.06-1.53,3.84,3.84,0,0,0,.9-3.77c-.32-.8-.83-1.32-.7-2.32.31-2.44,2.77-3.33,5.27-3.33a9.88,9.88,0,0,1,4.38,1c1.42.73,2.77,2.45,2,4.24-.65,1.52-2.45.66-3.74,1.19-1.09.53-2.57,2.84-3,3.9-.58,1.66,1,2.92,1.1,4.5.19,3.51-1.36,6.69-2.06,9.87-.13.59.38,1.39.06,1.92-.51.86-1.48.53-2.32.86-.64.26-.9.73-1.48,1.12-1.16.73-2.57,1.13-2.7,2.78.77,0,1.29-.39,2.12-.46.13,0,.13.07.2.13-.2,1.59-1.29,2.85-.65,4.37.92,0,1.17-1.88,2.39-1.88a1.44,1.44,0,0,1,.51.1c.19,0,.19,0,.19.19a9.86,9.86,0,0,0,1.1,3c.13,0,.71-.13.64-.6a10.26,10.26,0,0,1,.13-3.44c.51-1.32,1.35-1.12,1.16-2.91.26,0,.58-.47.84-.53,2-.71,2.36-1.86,4.75-1.86h.2a3.89,3.89,0,0,1,1.8.33c.45,0,.26-.73.13-1.26-.9-3.11-2.06-6.16-2.06-9.73H56a27.25,27.25,0,0,0,1.8,3c.35.6,1.37,3,2.37,3a.6.6,0,0,0,.33-.1c.52-.33.84-4,1.1-4.83A3.55,3.55,0,0,1,64.74,40a3.42,3.42,0,0,1,2.84,1.87c1.74,2.78.65,8.6-1.54,10.79-.84.79-2.06.86-2.9,1.59s-.06,2.31-.25,3.37a5,5,0,0,1-1.48,2.65c-1.61,1.59-3.67,2.32-5.28,3.77-.71.6-.84,1.66-1.68,2.06a1.87,1.87,0,0,1-.78.15c-.44,0-.91-.1-1.35-.1a1.79,1.79,0,0,0-.57.08c-.64.4-1.22.79-1.87,1.19a40.7,40.7,0,0,1-3.67,1.85c0,1.12,1.16,1.48,2.56,1.48a12.4,12.4,0,0,0,4.59-1c.84-.46,1.09-1.65,2-2a1.26,1.26,0,0,1,.49-.1c.57,0,1.12.37,1.75.37a1.58,1.58,0,0,0,.47-.07,12.16,12.16,0,0,0,2.57-1.65,44.92,44.92,0,0,0,4.64-3.25,5.21,5.21,0,0,0,1.48-1.65c.36-1-1.07-3.35,1.12-3.35a3.65,3.65,0,0,1,.55,0h.23c2.17,0,4.29-4.44,4.73-6,.26-1.26.51-2.58.77-3.84.32-.79.64-1.52,1-2.31.19-1.79-1.48-1.73-1.74-3.12-.32-1.78,1.41-3.31.58-5.09s-5-1.72-5-3.78c0-1.17.76-1.48,1.75-1.48s2.23.32,3,.36c0-2.88-.84-5.46-2.93-5.46a4.78,4.78,0,0,0-2.55,1c-.64,0-1.61-.14-1.93-.73C65,25.34,68.68,24.81,68.81,23c.06-1.06-1.23-1.72-1.61-2.58a4.77,4.77,0,0,1,0-1.92c0-.27-.32-.27-.52-.33a1.51,1.51,0,0,0-.42-.05c-.47,0-.93.17-1.41.17a1.52,1.52,0,0,1-.42-.06c-.84-.19-1.35-1-2.12-1.39,0,.34-.58.73-.71,1-.48.66-1.94,2.73-3.16,2.73a1,1,0,0,1-.7-.28c-.52-.47-.39-1.33-.33-2,.71-5-1-5.49-5.27-6.16a24.32,24.32,0,0,0-3.93-.56,3.34,3.34,0,0,0-.9.1c0,.84,1,6.5-.72,6.5h-.12c-2.19,0-1-5.89-4.18-6.62Zm-8,22.52a2,2,0,0,1-.53-.15c-2.31-1-1.35-2.52-.45-4.24,1.74.73,2.13,3.84,1.1,4.37l-.12,0Zm5.35,11.36a1.72,1.72,0,0,1-.68-.14c-1.68-.59-1.42-2.51-1.42-4.3,2.13,1.06,2.9,2.91,2.77,3.84a.82.82,0,0,1-.19.53,1.52,1.52,0,0,1-.48.07ZM21.82,47.9A2.24,2.24,0,0,1,20,44.61a3.08,3.08,0,0,1,1.48-1.26,3,3,0,0,1,1.87.6,2.25,2.25,0,0,1-1.1,3.9,1.65,1.65,0,0,1-.44,0Z"/><path d="M29,0A12.46,12.46,0,0,0,18.24,6.23L1.67,34.94a12.44,12.44,0,0,0,0,12.46L18.24,76.11A12.48,12.48,0,0,0,29,82.34h5.53L56.62,0Z"/><polygon class="cls-3" points="0.01 40.72 0.01 40.72 0.01 40.72 0.01 40.72"/><path class="cls-3" d="M77,41.3H91.22c0-.19,0-.39,0-.58H77V25.78h7.31l-.33-.58H77V13.11l-.58-1V25.2h-15V10.26H75.3L75,9.67H61.42V0h-.58V9.67H54l-.16.59h7V25.2h-11l-.16.58H60.84V40.72H45.9V40l-.58,2.17V56.24H41.55l-.16.59h3.93V71.77H37.39l-.16.58h8.09v10h.58v-10H60.84v10h.58v-10H75.15l.33-.58H61.42V56.83h15V70.24l.58-1V56.83h7.16l.33-.59H77ZM60.84,71.77H45.9V56.83H60.84Zm0-15.53H45.9V41.3H60.84Zm15.53,0h-15V41.3h15Zm0-15.52h-15V25.78h15Z"/><rect class="cls-3" x="14.56" y="12.02" height="1.16"/><rect class="cls-3" x="14.56" y="69.15" height="1.16"/><rect class="cls-3" x="6.94" y="56.2" height="0.67"/><path class="cls-2" d="M43.19,46.32c-.71-1.45.32-2.64-.13-4s-4.18-2.45-5.34-3.58a1.65,1.65,0,0,1-.58-1.59c.71-2.25,3.28-.93,5.08-1.45a4.78,4.78,0,0,0,2.06-1.53,3.84,3.84,0,0,0,.9-3.77c-.32-.8-.83-1.32-.7-2.32.32-2.52,2.93-3.39,5.52-3.33l3.31-12.36-1.17-.2c-1-.19-3.67-.79-4.83-.46,0,.86,1,6.75-.84,6.49-2.19,0-1-5.89-4.18-6.62-.52.2-1.23.26-1.55.79s.45,2.78.65,3.58a5.55,5.55,0,0,1-.2,3.24c-3.6.13-3.22-8.08-8.88-4.1,0,2.18,5.08,5,3.35,7.41a2.12,2.12,0,0,1-1.29.8c-2.64.33-3.73-5.76-6.82-5.17a1.54,1.54,0,0,0-1.16.93c-.71,1.46,2.64,3.51,3.15,5a5.3,5.3,0,0,1-.06,2.25c-2.58,0-5.6-3.77-8-1.39a1.66,1.66,0,0,0-.64,1.46c.26,1,2,.86,2.51,1.79,1,2.25-1.09,3.84-1.16,5.76,0,.92.71,1.52.39,2.58-1,3.51-4.31-.46-5.92,1.06-1.42,1.39.19,4.24.32,5.89.06,1.06-.52,1.85-.58,2.91-.06.86.64,1.59.84,2.45.32,1.13,0,2.39.64,3.38,1.8,2.85,4.83-4.9,6.18-1.66C25.16,53.14,19.63,53,19.5,55s3.22,3.77,4.51,5a7.46,7.46,0,0,1,2.18,4.17c.13,1.59-.58,3.24-1,4.7.58,0,1,.26,1.61.06,2.83-.86,4.44-5.49,4-8.34-.39-2.38-1.67-4.43-1.8-6.95s2.19-6.62-.07-8.41c-.13-.06-.19-.13-.32-.19,0,.26-.51.33-.84.33a1.84,1.84,0,0,1-1.22-.47,1.15,1.15,0,0,1-.39-1.59c.52-.79,2.06-.66,2.26-1.78.38-2.45-4.57-2.92-1.55-5.89a3,3,0,0,1,2.19-.93c1.42.13,4.76,1.12,4.57,3-.06.86-.77,1.59-.45,2.51s1.67.86,2.06,1.79c.52,1.26-.51,2.12-.39,3.31,0,.27.13.4.39.6.45.33,1.22.46,1.48,1,.64,1.46-1,3.18,1.16,4,0-1-.19-2.38.64-2.91,0,.26.45.59.65.79.71,1.13,1,2.19,2.44,2.58a8,8,0,0,0-1.16-4c1,0,1.68,1.39,2.84,1.06a.65.65,0,0,0,.41-.28l.09-.34A4.73,4.73,0,0,0,43.19,46.32ZM22.26,47.85A2.2,2.2,0,0,1,20,44.61a3.08,3.08,0,0,1,1.48-1.26,3,3,0,0,1,1.87.6A2.25,2.25,0,0,1,22.26,47.85Zm12.1-13.78c-.19.07-.45-.07-.65-.13-2.31-1-1.35-2.52-.45-4.24C35,30.43,35.39,33.54,34.36,34.07Zm5.9,10.78a.82.82,0,0,1-.19.53,1.66,1.66,0,0,1-1.16-.07c-1.68-.59-1.42-2.51-1.42-4.3C39.62,42.07,40.39,43.92,40.26,44.85Z"/></g></g></svg>