<svg xmlns="http://www.w3.org/2000/svg" xml:space="preserve" fill-rule="evenodd" stroke-linejoin="round" stroke-miterlimit="2" clip-rule="evenodd" viewBox="0 0 512 512"><path fill="#ffc400" fill-rule="nonzero" d="M380.2 297.7V233H432a170 170 0 0 1-18.3 73.4 169 169 0 0 1-61 67.6c17.4-21.6 27-48.2 27.5-76.3m-220.4 76.7A171.1 171.1 0 0 1 80 233h51.8v64.7c.3 28.2 10.3 55 28 76.7M256 7A249.2 249.2 0 0 0 131 471.7h.1l6 3.3 5 2.7a292.6 292.6 0 0 0 41.6 16.8l2.8.7 1.2.4 4.4 1.3c5.5 1.4 11.1 2.7 16.7 3.7 2 .5 3.8.7 5.8 1.1l6 1 3.5.4a222.2 222.2 0 0 0 14.2 1.4l9.9.5 7.4.1h.3l7.7-.1c3.3 0 6.6-.3 9.9-.5a222.2 222.2 0 0 0 17.6-1.9l6-.9a136.2 136.2 0 0 1 4.5-.8l4.2-.9 4.2-.9a77.3 77.3 0 0 0 10.1-2.4l5.2-1.5c.7 0 1.4-.3 2.2-.5l4.8-1.6c5.8-1.8 11.6-4 17.3-6.3l1.2-.5 6.1-2.6 6-2.7 6-3a224.1 224.1 0 0 0 32.5-19.8A248.1 248.1 0 0 0 505.2 256 249.2 249.2 0 0 0 256 6.8"/><path fill-rule="nonzero" d="M384.2 477.7c-16.6 9.6-34.1 17.2-52.1 22.7v.1l-5.2 1.5-5 1.4-6.3 1.7a268 268 0 0 1-22.8 4.2l-4.2.7a212.7 212.7 0 0 1-14.7 1.4l-10 .5-8 .1h-.2l-7.7-.1-9.8-.5-5-.4-9.8-1-3.7-.6a268.7 268.7 0 0 1-29.2-5.9l-4-1 .1-3.7-.8 3.5-.6-.3c-.8 0-1.5-.3-2.3-.6-.3 0-.7-.1-1-.3l-2.5-.8a242.4 242.4 0 0 1-28.8-10.9l-4.7-2.2a296 296 0 0 1-6.7-3.3l-11.4-6.2 3.4-6.1 11.2 6 6.5 3.3 4.7 2.2a236.6 236.6 0 0 0 30.2 11.2l2.8.9 1.2.3 4.5 1.3a282.1 282.1 0 0 0 27.8 5.6l.8.1 3 .5 10 1 4.4.4 9.9.5h15.5l9.6-.5 4.7-.4 9.7-1 3.3-.5.9-.1 5.3-.8a260.5 260.5 0 0 0 23-5l4.7-1.3.5-.1 2.2-.7 4.8-1.5c16.6-5.3 32.9-12.5 48.3-21.4z"/><path fill="#0c1a25" fill-rule="nonzero" d="M256 369.2v7a80.2 80.2 0 0 1-80.1-80v-52.8h7v52.7a73.2 73.2 0 0 0 73 73.1"/><path fill="#0c1a25" fill-rule="nonzero" d="M413.7 306.4a169 169 0 0 1-61 67.6c17.4-21.6 27-48.2 27.5-76.3V233H432a170 170 0 0 1-18.3 73.4M339 379a179 179 0 0 1-8.1 7.3v.1l-.6.3-.3.2a117.2 117.2 0 0 1-191.2-89.2V192.8h234.4v104.9A117.4 117.4 0 0 1 339 379M80 233h51.8v64.7c.3 28.2 10.3 55 28 76.7A171.1 171.1 0 0 1 80 233m300.2-7v-40.2H131.8V226h-59v3.5c0 65.3 35.7 125.3 93 156.6l12.2 6.6c10.9 8.8 23.2 15.7 36.3 20.4-.1 9-2.6 42.8-33.2 63.6l-1.5 1.1v20l7-.1v-16.3a84.8 84.8 0 0 0 34.7-66 122.8 122.8 0 0 0 69.4 0 84.3 84.3 0 0 0 34.7 66V498h7v-20.1l-1.6-1a78.9 78.9 0 0 1-33.2-63.7 121.4 121.4 0 0 0 36.7-20.6l.2-.1L346 386a176 176 0 0 0 73.8-76.5 177 177 0 0 0 19.1-80V226z"/><path fill="#1e83aa" fill-rule="nonzero" d="M256 376.2a80.2 80.2 0 0 1-80.1-80v-52.8h7v52.7a73.2 73.2 0 0 0 73 73.1zM138.8 192.8v105a117.2 117.2 0 0 0 191.2 89l.3-.1.5-.3 8.2-7.4a117.4 117.4 0 0 0 34.2-81.3V192.8Z"/><path fill="#e95f4a" fill-rule="nonzero" d="M307.8 74.9a51.8 51.8 0 0 1-51.8 51.7 51.8 51.8 0 0 1 51.8 51.8 51.8 51.8 0 0 1 51.7-51.8A51.8 51.8 0 0 1 307.8 75M373.2 46.3a28.6 28.6 0 0 1-28.6 28.6 28.6 28.6 0 0 1 28.6 28.5A28.6 28.6 0 0 1 401.7 75a28.6 28.6 0 0 1-28.5-28.6"/><path fill-rule="nonzero" d="M256 512h-.3v-7Z"/><path fill="#0c1a25" fill-rule="nonzero" d="M401.5 458.2a257.2 257.2 0 0 1-32.6 19.8l-5.8 3-6 2.7-7.4 3c-5.7 2.4-11.5 4.5-17.3 6.3l-4.8 1.5-2.2.7-.5.1c-1.5.4-3.1 1-4.7 1.3l-6.2 1.6-4 .9-4 1a42.1 42.1 0 0 1-6.5 1.2l-2.3.3-5.3.8-.9.1-3.3.5-9.7 1-4.7.4a212.3 212.3 0 0 1-25.1.5l-9.9-.5-4.5-.4-10-1-2.9-.5-.8-.1a140.8 140.8 0 0 1-11.2-1.8c-5.7-1.1-11.2-2.4-16.6-3.8l-4.5-1.3-1.2-.3-2.8-.9-4.2-1.3a236.5 236.5 0 0 1-37.2-15.3l-11.1-6v-.1A250 250 0 0 1 7 256C7 118.7 118.7 7 256 7s249 111.7 249 249a250.1 250.1 0 0 1-103.5 202.2M256 0A256.3 256.3 0 0 0 0 256c0 91 49 176 127.8 221.7l11.4 6.2a296 296 0 0 0 6.7 3.3l4.7 2.2 7.8 3.3c7 2.9 14 5.4 21 7.6l2.5.8 1 .3 2.3.6.6.3.7.2 4 1a268.6 268.6 0 0 0 29.2 6l3.7.5a220 220 0 0 0 14.8 1.4l9.8.5 7.7.1h.3l7.9-.1 10-.5 4.8-.4 9.9-1 4.2-.7 5.6-.8c6.2-1 11.9-2.2 17.2-3.4l6.3-1.7 5-1.4 5.2-1.5A257 257 0 0 0 512 256C511.9 114.8 397 0 255.9 0"/><path fill="#fff" fill-rule="nonzero" d="M432 233a170 170 0 0 1-18.3 73.4 169 169 0 0 1-61 67.6c17.4-21.6 27-48.2 27.5-76.3V233zM159.8 374.4A171.1 171.1 0 0 1 80 233h51.8v64.7c.3 28.2 10.3 55 28 76.7M325.4 481.4v13.8l-.5.1c-1.5.4-3.1 1-4.7 1.3l-6.2 1.6c-5.2 1.3-10.7 2.4-16.8 3.4l-5.3.8-.9.1-3.3.5-9.7 1-4.7.4a210.6 210.6 0 0 1-25.1.4c-3.2 0-6.4-.2-9.9-.4l-4.5-.4a327 327 0 0 1-10-1l-2.9-.5-.8-.1a282.1 282.1 0 0 1-27.8-5.6l-4.5-1.3-1.2-.3v-13.8a84.8 84.8 0 0 0 34.7-66 122.7 122.7 0 0 0 69.4 0 84.3 84.3 0 0 0 34.7 66"/></svg>